<?xml version="1.0" encoding="UTF-8"?>
<svg version="1.1" xmlns="http://www.w3.org/2000/svg" width="141" height="144">
<path d="M0 0 C6.36618428 4.32900531 12.29298463 9.30856659 18.24853516 14.17871094 C20.74881821 16.20487836 23.28347876 18.18447969 25.82373047 20.16015625 C28.62450599 22.34064617 31.40560227 24.54547727 34.1875 26.75 C35.01636719 27.39710937 35.84523438 28.04421875 36.69921875 28.7109375 C37.39660156 29.28070313 38.09398438 29.85046875 38.8125 30.4375 C39.38226563 30.89511719 39.95203125 31.35273437 40.5390625 31.82421875 C45.95550143 38.15195428 46.76179929 44.35638857 46.61328125 52.4609375 C46.60834908 53.97320419 46.60834908 53.97320419 46.60331726 55.51602173 C46.58765801 58.71946148 46.54368393 61.92183362 46.5 65.125 C46.48849647 67.26822054 46.47871492 69.41145106 46.47070312 71.5546875 C46.45727118 73.62761473 46.44234605 75.70053294 46.42578125 77.7734375 C46.41839432 78.72479584 46.41100739 79.67615417 46.40339661 80.65634155 C46.22960395 93.03755112 45.76131991 102.6136562 36.5 111.6875 C30.09788576 116.89599972 22.15115431 117.25562884 14.1875 116.75 C9.42860874 116.1811763 6.10294663 115.45119317 2.25 112.5 C-2.03902549 106.78129935 -2.07846343 101.22731955 -1.9375 94.375 C-1.89625 91.52875 -1.855 88.6825 -1.8125 85.75 C-7.7525 85.75 -13.6925 85.75 -19.8125 85.75 C-19.84988281 87.19632812 -19.88726562 88.64265625 -19.92578125 90.1328125 C-19.99146073 92.04690008 -20.05790738 93.96096144 -20.125 95.875 C-20.14755859 96.82632813 -20.17011719 97.77765625 -20.19335938 98.7578125 C-20.43163669 104.99634594 -20.97278837 110.00494543 -25.6875 114.5625 C-33.32298189 118.82938694 -43.86239527 117.13056295 -51.91015625 114.9140625 C-59.38583256 111.9157428 -63.82508407 106.70281676 -66.95681763 99.46560669 C-68.5751873 94.3295239 -68.36018925 89.13736796 -68.30859375 83.796875 C-68.31004898 82.57848938 -68.31150421 81.36010376 -68.31300354 80.10479736 C-68.3113509 77.54314774 -68.29986142 74.98148752 -68.27905273 72.41992188 C-68.24998718 68.4982707 -68.25848069 64.57796364 -68.27148438 60.65625 C-68.26524968 58.16145177 -68.25686086 55.66665779 -68.24609375 53.171875 C-68.24902939 52.00098328 -68.25196503 50.83009155 -68.25498962 49.62371826 C-68.24230545 48.53198303 -68.22962128 47.4402478 -68.21655273 46.31542969 C-68.21114975 45.3588446 -68.20574677 44.40225952 -68.20018005 43.41668701 C-66.61348287 32.50246865 -52.76997836 24.10057402 -44.8125 17.75 C-42.95647551 16.23143451 -41.10229409 14.71061348 -39.25 13.1875 C-37.89455078 12.08341797 -37.89455078 12.08341797 -36.51171875 10.95703125 C-34.71334214 9.4865786 -32.92419723 8.0047621 -31.14453125 6.51171875 C-22.02223357 -1.0372931 -11.45133209 -6.47000263 0 0 Z M-20.56640625 12.625 C-26.58555261 17.17912465 -32.42244065 21.87182994 -38.14648438 26.78955078 C-41.31661977 29.50914269 -44.5404612 32.11042975 -47.875 34.625 C-52.30990008 38.03458373 -55.71470724 41.10749652 -56.8125 46.75 C-56.91035238 48.26439429 -56.96041958 49.78230985 -56.97363281 51.29980469 C-56.98324036 52.19463562 -56.9928479 53.08946655 -57.00274658 54.01141357 C-57.00699646 54.97186584 -57.01124634 55.93231812 -57.015625 56.921875 C-57.02132507 57.91825989 -57.02702515 58.91464478 -57.03289795 59.94122314 C-57.04233811 62.04934633 -57.04887802 64.15748421 -57.05273438 66.265625 C-57.06242217 69.47422377 -57.09344796 72.68217696 -57.125 75.890625 C-57.13153235 77.94270455 -57.13678191 79.99478866 -57.140625 82.046875 C-57.1529718 82.99923035 -57.1653186 83.95158569 -57.17803955 84.93280029 C-57.15831015 90.89836228 -56.3386925 95.32091558 -53.8125 100.75 C-49.7502622 104.55834793 -43.25182587 105.48595505 -37.8125 105.75 C-34.54817654 104.87476252 -34.54817654 104.87476252 -31.8125 103.75 C-31.76351562 102.45964844 -31.71453125 101.16929688 -31.6640625 99.83984375 C-31.58898197 98.12237653 -31.51343646 96.40492959 -31.4375 94.6875 C-31.4065625 93.83994141 -31.375625 92.99238281 -31.34375 92.11914062 C-31.10859082 87.04362164 -30.74630903 82.4798259 -28.8125 77.75 C-21.97564902 72.90487627 -10.13737697 73.93647713 -2.28125 75.13671875 C-0.1875 75.625 -0.1875 75.625 3.1875 76.75 C3.97125 76.9975 4.755 77.245 5.5625 77.5 C8.1329111 79.47723931 8.36190701 81.63338645 9.1875 84.75 C9.55284207 88.03737193 9.6930634 91.32058734 9.8125 94.625 C9.85117188 95.50414063 9.88984375 96.38328125 9.9296875 97.2890625 C10.02331034 99.44238793 10.10646459 101.59616414 10.1875 103.75 C16.14065728 105.73438576 22.4721697 105.34787741 28.1875 102.75 C31.77317193 100.2598792 31.77317193 100.2598792 34.1875 96.75 C34.30332954 95.05644948 34.35706902 93.35847982 34.38037109 91.66113281 C34.40446548 90.06872772 34.40446548 90.06872772 34.42904663 88.44415283 C34.47346363 83.58191521 34.51456789 78.71981494 34.53759766 73.85742188 C34.55415358 71.29287642 34.58143838 68.72837703 34.61962891 66.1640625 C34.67439553 62.46850618 34.69627344 58.77403251 34.7109375 55.078125 C34.74494156 53.36221161 34.74494156 53.36221161 34.77963257 51.6116333 C34.86211075 44.90198169 34.86211075 44.90198169 31.84375 39.14013672 C28.91843867 36.50789426 25.95388491 33.99196796 22.8125 31.625 C21.57221013 30.67279459 20.33265278 29.71963444 19.09375 28.765625 C18.454375 28.27513672 17.815 27.78464844 17.15625 27.27929688 C15.15649895 25.72591883 13.18446933 24.14305458 11.21875 22.546875 C10.56567871 22.01723145 9.91260742 21.48758789 9.23974609 20.94189453 C7.99543965 19.93024533 6.75340513 18.91579229 5.51416016 17.89794922 C-6.71518177 7.73788583 -6.71518177 7.73788583 -20.56640625 12.625 Z " fill="#F9F9F8" transform="translate(81.8125,15.25)"/>
<path d="M0 0 C4.22271781 2.53363068 6.78310162 4.56620325 9 9 C7.66666667 8.33333333 6.33333333 7.66666667 5 7 C4.278125 6.67 3.55625 6.34 2.8125 6 C1 5 1 5 0 3 C-0.66 2.67 -1.32 2.34 -2 2 C-1.34 2 -0.68 2 0 2 C0 1.34 0 0.68 0 0 Z " fill="#F2F2F2" transform="translate(117,44)"/>
</svg>
